<svg xmlns="http://www.w3.org/2000/svg" viewBox="0 0 8312.57 1050.35"><defs><style>.a{fill:#fff;}</style></defs><title>evangelist-text-white</title><path class="a" d="M3704.75,168.32h470.51V289.93h-329V434.47h322V556.08h-322V710.6h329V833.21H3704.75Z"/><path class="a" d="M4193.09,351.73h135.57l125.6,334.94,125.6-334.94h136.57L4523,833.21H4386.47Z"/><path class="a" d="M5041.27,783.36c-32.89,38.88-89.71,61.81-152.51,61.81-76.76,0-167.47-51.83-167.47-159.5,0-112.64,90.71-153.51,167.47-153.51,63.79,0,120.61,19.94,152.51,58.81V524.18c0-48.84-41.87-80.74-105.66-80.74-51.84,0-99.69,18.94-140.56,56.82l-47.85-84.73c58.82-51.84,134.58-75.76,210.34-75.76,109.65,0,210.33,43.86,210.33,182.42v311h-126.6Zm0-125.6c-20.93-27.91-60.8-41.86-101.67-41.86-49.85,0-90.72,26.91-90.72,72.76,0,44.86,40.87,70.78,90.72,70.78,40.87,0,80.74-14,101.67-41.87Z"/><path class="a" d="M5565.81,542.13c0-66.79-34.89-89.72-88.72-89.72-49.84,0-88.72,27.91-109.65,56.82v324h-126.6V351.73h126.6v62.8c30.9-36.88,89.71-74.76,168.46-74.76,105.67,0,156.51,59.81,156.51,153.51V833.21h-126.6Z"/><path class="a" d="M5833.28,865.11c38.87,42.86,89.71,59.8,150.52,59.8S6116.38,898,6116.38,803.3V754.46c-37.88,47.85-89.71,75.75-148.53,75.75-120.62,0-212.33-84.73-212.33-245.21,0-157.51,90.72-245.23,212.33-245.23,57.82,0,109.66,24.92,148.53,73.76v-61.8H6244V800.31c0,183.42-141.56,228.28-260.18,228.28-82.73,0-147.53-18.94-207.34-71.78Zm283.1-357.88c-20.93-31.89-66.79-54.82-108.66-54.82-71.77,0-121.61,49.85-121.61,132.59S5936,717.57,6007.72,717.57c41.87,0,87.73-23.92,108.66-54.82Z"/><path class="a" d="M6556.31,339.77c143.55,0,241.24,107.66,241.24,265.16v27.92H6439.68c8,60.8,56.82,111.64,138.56,111.64,44.86,0,97.69-17.94,128.59-47.85l55.83,81.74c-48.85,44.86-123.61,66.79-198.37,66.79-146.54,0-257.19-98.69-257.19-253.2C6307.1,452.41,6409.77,339.77,6556.31,339.77ZM6437.69,547.11h237.25c-3-45.85-34.9-106.66-118.63-106.66C6477.56,440.45,6443.67,499.26,6437.69,547.11Z"/><path class="a" d="M6868.2,168.32h126.6V833.21H6868.2Z"/><path class="a" d="M7075.85,205.19c0-41.86,34.89-75.76,75.77-75.76a75.77,75.77,0,0,1,0,151.53C7110.74,281,7075.85,247.07,7075.85,205.19Zm12.95,146.54h126.61V833.21H7088.8Z"/><path class="a" d="M7332.91,681.68c34.88,32.9,106.66,65.79,166.47,65.79,54.83,0,80.74-18.93,80.74-48.84,0-33.89-41.86-45.85-96.68-56.82C7400.7,625.86,7294,605.92,7294,491.29c0-80.74,70.78-151.52,197.38-151.52,81.74,0,146.54,27.91,193.39,65.79L7635,492.28c-28.9-30.9-83.73-55.82-142.54-55.82-45.87,0-75.77,17-75.77,44.86,0,29.9,37.88,40.87,91.72,51.84,82.74,16,193.38,37.87,193.38,157.5,0,88.71-74.77,154.51-208.35,154.51-83.72,0-164.47-27.91-215.31-74.76Z"/><path class="a" d="M7820.36,713.58V462.38h-79.73V351.73h79.73V220.14H7948V351.73h97.69V462.38H7948V679.7c0,29.9,16,52.82,43.87,52.82,18.94,0,36.87-7,43.86-13.95l26.91,95.7c-18.94,16.94-52.83,30.9-105.66,30.9C7868.22,845.17,7820.36,799.31,7820.36,713.58Z"/><path class="a" d="M1183.32,500c0-204.07,154.3-343.44,353.39-343.44,146.33,0,231,79.64,277.73,162.27L1693,378.58c-27.87-53.76-87.61-96.56-156.29-96.56-120.46,0-208,92.58-208,218s87.59,218,208,218c68.68,0,128.42-41.81,156.29-96.56l121.44,58.73c-47.78,82.62-131.4,163.25-277.73,163.25C1337.62,843.45,1183.32,704.09,1183.32,500Z"/><path class="a" d="M1831.63,590.61c0-136.37,95.56-251.85,253.84-251.85,159.26,0,254.83,115.48,254.83,251.85,0,137.38-95.57,252.84-254.83,252.84C1927.19,843.45,1831.63,728,1831.63,590.61Zm377.27,0c0-74.66-44.8-139.36-123.43-139.36S1963,516,1963,590.61c0,75.65,43.8,140.36,122.45,140.36S2208.9,666.26,2208.9,590.61Z"/><path class="a" d="M2730.78,831.51V769.8c-37.83,47.77-90.59,73.65-148.33,73.65-121.45,0-213-91.58-213-251.84,0-157.29,90.59-252.85,213-252.85,56.75,0,110.5,24.89,148.33,73.67V167.55h127.41v664Zm0-155.29V506c-20.91-31.85-66.7-54.75-109.5-54.75-71.67,0-121.45,56.74-121.45,140.36,0,82.62,49.78,139.36,121.45,139.36C2664.08,731,2709.87,708.07,2730.78,676.22Z"/><path class="a" d="M2905.54,590.61c0-139.36,102.53-251.85,248.86-251.85,143.35,0,240.91,107.51,240.91,264.79v27.88H3037.94c8,60.72,56.74,111.48,138.37,111.48,40.81,0,97.55-17.91,128.41-47.78l55.75,81.63c-47.79,43.8-123.44,66.69-198.1,66.69C3016,843.45,2905.54,744.91,2905.54,590.61ZM3154.4,439.3c-78.63,0-112.47,58.73-118.46,106.52h236.92C3269.87,500,3238,439.3,3154.4,439.3Z"/><path class="a" d="M8066.8,216.68a69,69,0,0,1,5.67-27.82,71.06,71.06,0,0,1,15.38-22.62,74.55,74.55,0,0,1,22.8-15.25,71.27,71.27,0,0,1,55.62,0,74.46,74.46,0,0,1,22.78,15.25,71,71,0,0,1,15.4,22.62,69,69,0,0,1,5.67,27.82,67.82,67.82,0,0,1-5.67,27.65,71.69,71.69,0,0,1-66,43,70.69,70.69,0,0,1-27.8-5.5,71.08,71.08,0,0,1-38.18-37.55A67.82,67.82,0,0,1,8066.8,216.68Zm11.32,0a58.54,58.54,0,0,0,4.71,23.26,62.46,62.46,0,0,0,12.89,19.32,60.08,60.08,0,0,0,85.48,0,62.46,62.46,0,0,0,12.89-19.32,58.54,58.54,0,0,0,4.71-23.26,59.31,59.31,0,0,0-4.71-23.58,60.11,60.11,0,0,0-32.06-32,61.21,61.21,0,0,0-47.14,0,60.11,60.11,0,0,0-32.06,32A59.31,59.31,0,0,0,8078.12,216.68Zm32.36-40.54h28.29a47.76,47.76,0,0,1,11,1.26,28.85,28.85,0,0,1,9.59,4.08,21.55,21.55,0,0,1,6.76,7.23,22,22,0,0,1,2.51,11q0,8.82-5,14.3a25.17,25.17,0,0,1-13.51,7.4l21.68,35.19h-17.6L8135.31,223H8125v33.63h-14.47Zm26.09,35.2a31,31,0,0,0,11.94-2.36q5.67-2.37,5.66-9.58,0-6.61-5.19-8.81a27.56,27.56,0,0,0-10.83-2.2H8125v23Z"/><path class="a" d="M542.53,272.16l-38,73.74,42.38,40,21.93-6.85-3.2-101.59-.48-2.33a11.67,11.67,0,0,0-20.31-5.26Z"/><path class="a" d="M733.57,356.34,615.13,482.42l-10.84-34.35a45,45,0,0,0-13.16-20.66l-25.88-24.35,164.86-52.25a3.38,3.38,0,0,1,4.35,3.55A3.34,3.34,0,0,1,733.57,356.34Z"/><path class="a" d="M724.05,558.09l-83.56,2.85-17.55-54.61,15.92-16.85,89.36,45.84,1.93,1.45A12.15,12.15,0,0,1,725.76,558Z"/><path class="a" d="M276.38,456.58a12.12,12.12,0,0,1,3.6-21.5l3.07-.79,83.35-2.36,17.94,56.37L369,504.35Z"/><path class="a" d="M276.91,643.85l164.77-52.38-25.4-24.08a46.38,46.38,0,0,1-13.51-20.93l-10.93-34.12-118.44,126a3.37,3.37,0,0,0,1.32,5.5A3.42,3.42,0,0,0,276.91,643.85Z"/><path class="a" d="M502.56,649.12,460.23,609.2l-21.93,7,3.38,103.13a12.24,12.24,0,0,0,22.24,3.82Z"/><path class="a" d="M662.42,722.94,578.19,458.11A26.89,26.89,0,0,0,571,446.67L368.5,256.41a14.65,14.65,0,0,0-24,15.09l84.22,264.83A26.41,26.41,0,0,0,436,547.78L638.51,738a14.61,14.61,0,0,0,23.91-15.1ZM468.83,528.52l78.22-49.26,55.88,175.47Z"/><path class="a" d="M496.47,972.64A475.44,475.44,0,1,1,721.9,78.09a40,40,0,0,1,16.72,53.65c-12.15,22.72-28.25,40.49-50.45,27.9a387.75,387.75,0,1,0,196.57,321C880.88,391.7,853,329.1,804.9,258.6a44.76,44.76,0,0,1,6.67-57.81c17.81-16.67,36.41-29.22,51.85-10.36,72.43,88.22,104.19,173.11,109.1,286.42A475.44,475.44,0,0,1,551,969.57,483.08,483.08,0,0,1,496.47,972.64Z"/></svg>