<svg xmlns="http://www.w3.org/2000/svg" viewBox="0 0 1000 1000"><defs><style>.a{fill:#fff;}</style></defs><title>evangelist-notext-white</title><path class="a" d="M546.75,274.39l-38.13,73.93,42.48,40.11,22-6.86-3.21-101.86-.49-2.33A11.7,11.7,0,0,0,549,272.11Z"/><path class="a" d="M738.27,358.79,619.53,485.18l-10.86-34.44A45.12,45.12,0,0,0,595.47,430l-25.94-24.41,165.26-52.37a3.39,3.39,0,0,1,4.37,3.55A3.46,3.46,0,0,1,738.27,358.79Z"/><path class="a" d="M728.73,561,645,563.9l-17.59-54.75,16-16.89,89.58,46,1.94,1.45a12.17,12.17,0,0,1-4.4,21.24Z"/><path class="a" d="M279.93,459.28a12.13,12.13,0,0,1,3.61-21.55l3.08-.79,83.55-2.38,18,56.51-15.35,16.1Z"/><path class="a" d="M280.46,647l165.18-52.51-25.46-24.15a46.67,46.67,0,0,1-13.55-21l-10.95-34.22L276.94,641.48a3.42,3.42,0,0,0-.91,2,3.33,3.33,0,0,0,.52,2.13,3.37,3.37,0,0,0,1.71,1.38A3.45,3.45,0,0,0,280.46,647Z"/><path class="a" d="M506.68,652.29l-42.44-40-22,7,3.39,103.39a12.27,12.27,0,0,0,22.3,3.83Z"/><path class="a" d="M666.94,726.31,582.5,460.82a27,27,0,0,0-7.21-11.48l-203-190.73a14.69,14.69,0,0,0-24.06,15.12l84.44,265.5a26.35,26.35,0,0,0,7.25,11.48L643,741.44a14.65,14.65,0,0,0,24-15.13ZM472.86,531.4,551.28,482l56,175.91Z"/><path class="a" d="M500.57,976.63a476.63,476.63,0,1,1,226-896.79,40.11,40.11,0,0,1,16.76,53.78c-12.19,22.78-28.33,40.59-50.58,28A388.72,388.72,0,1,0,889.82,483.38c-3.87-89.15-31.84-151.9-80-222.58a44.89,44.89,0,0,1,6.68-58c17.86-16.71,36.5-29.29,52-10.38C941.05,280.9,972.89,366,977.82,479.59a476.64,476.64,0,0,1-422.54,494A483.23,483.23,0,0,1,500.57,976.63Z"/></svg>