<svg xmlns="http://www.w3.org/2000/svg" viewBox="0 0 1000 1000"><defs><style>.a{fill:#ff686b;}</style></defs><title>evangelist-notext-avatar</title><path class="a" d="M528.68,364.64,505.8,409l25.49,24.07,13.19-4.12-1.92-61.11-.29-1.4a7,7,0,0,0-12.22-3.17Z"/><path class="a" d="M643.59,415.27l-71.24,75.84-6.52-20.66A27.1,27.1,0,0,0,557.92,458l-15.57-14.65L641.51,412a2.05,2.05,0,0,1,2.32.86,2.1,2.1,0,0,1,.3,1.27A2,2,0,0,1,643.59,415.27Z"/><path class="a" d="M637.87,536.62l-50.27,1.72-10.55-32.85,9.57-10.13,53.75,27.57,1.16.87a7.32,7.32,0,0,1,.76,10.7,7.38,7.38,0,0,1-3.39,2Z"/><path class="a" d="M368.59,475.57a7.37,7.37,0,0,1-2.51-3.15,7.2,7.2,0,0,1-.46-4,7.29,7.29,0,0,1,1.74-3.63,7.21,7.21,0,0,1,3.39-2.15l1.85-.48,50.14-1.42,10.79,33.9-9.21,9.66Z"/><path class="a" d="M368.91,588.21,468,556.7l-15.28-14.48a28.05,28.05,0,0,1-8.13-12.59L438,509.1,366.8,584.89a2.08,2.08,0,0,0-.55,1.2,2.06,2.06,0,0,0,.31,1.28,2,2,0,0,0,1,.82A2.06,2.06,0,0,0,368.91,588.21Z"/><path class="a" d="M504.64,591.38l-25.46-24-13.2,4.2,2,62a7.35,7.35,0,0,0,2.11,3.69,7.36,7.36,0,0,0,8,1.37,7.28,7.28,0,0,0,3.22-2.77Z"/><path class="a" d="M600.79,635.79l-50.66-159.3a16.11,16.11,0,0,0-4.33-6.89L424,355.16a8.81,8.81,0,0,0-14.43,9.08l50.66,159.3a15.84,15.84,0,0,0,4.36,6.88L586.41,644.86a8.78,8.78,0,0,0,14.38-9.07ZM484.35,518.84l47-29.63L565,594.75Z"/><path class="a" d="M501,786A286,286,0,1,1,636.57,247.9a24.06,24.06,0,0,1,10.06,32.27c-7.31,13.67-17,24.36-30.35,16.78A233.24,233.24,0,1,0,734.52,490c-2.32-53.49-19.1-91.14-48-133.55a26.92,26.92,0,0,1,4-34.78c10.71-10,21.9-17.57,31.19-6.22,43.56,53.06,62.67,104.12,65.62,172.28A286,286,0,0,1,533.8,784.13,290.42,290.42,0,0,1,501,786Z"/></svg>