<svg xmlns="http://www.w3.org/2000/svg" viewBox="0 0 5315.59 1050.35"><title>codecup-text-black</title><path d="M3574.91,453.61c0-204.35,154.5-343.91,348.9-343.91,151.51,0,236.25,79.74,283.1,162.48L4085.3,332c-27.92-53.82-87.73-96.68-161.49-96.68-115.64,0-203.37,92.7-203.37,218.3s87.73,218.31,203.37,218.31c73.76,0,133.57-41.86,161.49-96.7L4206.91,634c-47.85,82.74-131.59,163.49-283.1,163.49C3729.41,797.52,3574.91,658,3574.91,453.61Z"/><path d="M4582.05,724.75c-32.9,36.88-90.72,72.77-169.47,72.77-105.67,0-155.51-57.81-155.51-151.52V304.08h126.6V596.16c0,66.79,34.89,88.72,88.71,88.72,48.85,0,87.73-26.92,109.67-54.82v-326h126.59V785.56H4582.05Z"/><path d="M4792.13,969V304.08h126.6v60.81c36.89-46.85,89.73-72.77,148.54-72.77,123.6,0,213.32,91.71,213.32,252.2s-89.72,253.2-213.32,253.2c-56.82,0-109.66-23.92-148.54-73.76V969ZM5027.4,404.77c-40.88,0-87.73,23.92-108.67,54.82V630.06c20.94,29.9,67.79,54.82,108.67,54.82,72.76,0,121.61-56.82,121.61-140.56C5149,461.58,5100.16,404.77,5027.4,404.77Z"/><path d="M1296,462.91c0-204.07,154.3-343.43,353.39-343.43,146.34,0,231,79.64,277.73,162.26l-121.44,59.73c-27.87-53.76-87.61-96.56-156.29-96.56-120.46,0-208,92.57-208,218s87.59,218,208,218c68.68,0,128.42-41.81,156.29-96.56l121.44,58.73c-47.77,82.63-131.39,163.26-277.73,163.26C1450.28,806.34,1296,667,1296,462.91Z"/><path d="M1944.29,553.5c0-136.38,95.56-251.86,253.84-251.86,159.26,0,254.83,115.48,254.83,251.86,0,137.37-95.57,252.84-254.83,252.84C2039.85,806.34,1944.29,690.87,1944.29,553.5Zm377.27,0c0-74.67-44.79-139.37-123.43-139.37s-122.45,64.7-122.45,139.37c0,75.65,43.8,140.35,122.45,140.35S2321.56,629.15,2321.56,553.5Z"/><path d="M2843.44,794.39V732.68c-37.83,47.78-90.59,73.66-148.33,73.66-121.45,0-213-91.59-213-251.85,0-157.28,90.59-252.85,213-252.85,56.75,0,110.5,24.89,148.33,73.67V130.43h127.42v664Zm0-155.29V468.88c-20.91-31.85-66.7-54.75-109.5-54.75-71.67,0-121.45,56.74-121.45,140.36,0,82.63,49.78,139.36,121.45,139.36C2776.74,693.85,2822.53,671,2843.44,639.1Z"/><path d="M3018.2,553.5c0-139.37,102.53-251.86,248.86-251.86,143.35,0,240.91,107.52,240.91,264.8v27.87H3150.6c8,60.72,56.74,111.49,138.37,111.49,40.81,0,97.55-17.92,128.41-47.78l55.75,81.62c-47.78,43.8-123.44,66.7-198.1,66.7C3128.69,806.34,3018.2,707.79,3018.2,553.5Zm248.86-151.31c-78.63,0-112.47,58.73-118.45,106.51h236.91C3382.53,462.91,3350.69,402.19,3267.06,402.19Z"/><path d="M511.8,53C248.47,53,35,266.43,35,529.77s213.48,476.81,476.81,476.81S988.61,793.1,988.61,529.77,775.14,53,511.8,53ZM374.6,605.22a10.58,10.58,0,0,0,3.85,3.87l121.38,70.09a10.62,10.62,0,0,0,10.61,0l118.77-67.44A25,25,0,0,1,656,613.07l102.42,72.78A25,25,0,0,1,756.33,728l-202,114.68a86.57,86.57,0,0,1-85.6-.16l-73.9-42.78a25,25,0,0,1,25-43.3L494,799.16a35.55,35.55,0,0,0,35.54,0l168-95.52-57.44-40.8L535.26,722.32a60.52,60.52,0,0,1-60.25,0l-121.54-70a60.62,60.62,0,0,1-22.18-22.17c-5.32-9.21-9.23-30.28-9.23-30.28V457a59.13,59.13,0,0,1,29.53-51.08l118.2-68.25a59.12,59.12,0,0,1,59,0l103.93,60,56.47-38.84L523,262.92a34.65,34.65,0,0,0-34.61,0L287.17,379.09a34.81,34.81,0,0,0-17.33,30V651A34.29,34.29,0,0,0,287,680.64l43.18,25a24.06,24.06,0,1,1-24.06,41.63l-43.29-25a82.47,82.47,0,0,1-41.13-71.26V409.84a85.11,85.11,0,0,1,42.57-73.5L469.15,218a85.07,85.07,0,0,1,84.94,0l203.3,117.39a24.84,24.84,0,0,1,1.63,42L656.5,448a24.86,24.86,0,0,1-26.47,1l-119.59-69a10.65,10.65,0,0,0-10.52,0L379.5,449.71a10.54,10.54,0,0,0-5.22,9.08V599.94S373.68,603.61,374.6,605.22Z"/></svg>