<svg xmlns="http://www.w3.org/2000/svg" viewBox="0 0 3661.2 1050.35"><defs><style>.a{fill:#fff;}</style></defs><title>clear-text-white</title><path class="a" d="M1342,548.89C1342,344.54,1496.53,205,1690.92,205c151.52,0,236.25,79.75,283.1,162.49l-121.61,59.81c-27.92-53.83-87.72-96.69-161.49-96.69-115.63,0-203.36,92.71-203.36,218.31s87.73,218.3,203.36,218.3c73.77,0,133.57-41.86,161.49-96.69L1974,729.31c-47.84,82.74-131.58,163.49-283.1,163.49C1496.53,892.8,1342,753.24,1342,548.89Z"/><path class="a" d="M2045.25,215.94h126.6v664.9h-126.6Z"/><path class="a" d="M2473.63,387.4c143.56,0,241.24,107.66,241.24,265.16v27.91H2357c8,60.81,56.82,111.65,138.57,111.65,44.85,0,97.69-17.94,128.59-47.85L2680,826c-48.85,44.87-123.61,66.8-198.37,66.8-146.54,0-257.19-98.69-257.19-253.2C2224.42,500,2327.09,387.4,2473.63,387.4ZM2355,594.74h237.25c-3-45.85-34.89-106.66-118.63-106.66C2394.88,488.08,2361,546.89,2355,594.74Z"/><path class="a" d="M3085.14,831c-32.88,38.88-89.71,61.81-152.51,61.81-76.76,0-167.46-51.83-167.46-159.5,0-112.64,90.7-153.51,167.46-153.51,63.8,0,120.61,19.94,152.51,58.81V571.81c0-48.85-41.86-80.74-105.66-80.74-51.84,0-99.68,18.94-140.55,56.82l-47.85-84.73c58.81-51.84,134.57-75.76,210.34-75.76,109.65,0,210.33,43.86,210.33,182.42v311H3085.14Zm0-125.6c-20.92-27.91-60.8-41.86-101.67-41.86-49.84,0-90.71,26.91-90.71,72.76,0,44.86,40.87,70.78,90.71,70.78,40.87,0,80.75-14,101.67-41.87Z"/><path class="a" d="M3305.77,399.36h126.6v65.79c33.89-42.86,93.7-76.75,153.51-76.75V512c-9-2-20.93-3-34.88-3-41.87,0-97.69,22.93-118.63,53.83v318h-126.6Z"/><path class="a" d="M530,68C266.62,68,53.15,281.51,53.15,544.85s213.47,476.8,476.81,476.8,476.81-213.47,476.81-476.8S793.29,68,530,68ZM815.75,545.69a30.17,30.17,0,0,1-10,20.8c-34.51,30.61-129.62,102-267.51,104h-6.26C391.35,670.52,294,598,258.48,566.45a30.18,30.18,0,1,1,40.16-45.06C329,548.3,412,610.27,532.13,610.27h5.06c117.68-1.72,198.9-62.69,228.34-88.84a30.18,30.18,0,0,1,50.22,24.26Z"/></svg>