<svg xmlns="http://www.w3.org/2000/svg" viewBox="0 0 1000 1000"><defs><style>.a{fill:#ff686b;}.b{fill:#fff;}</style></defs><title>clear-notext-color</title><path class="a" d="M500,978c264,0,478-214,478-478S764,22,500,22,22,236,22,500,236,978,500,978Z"/><path class="b" d="M502,626C361,626,263.47,553.27,227.84,521.66a30.26,30.26,0,0,1,40.26-45.18c30.45,27,113.64,89.11,234.07,89.11h5.08c118-1.73,199.4-62.85,228.91-89.07A30.26,30.26,0,0,1,758,468.91a30.25,30.25,0,0,1,18.4,52.79C741.84,552.39,646.49,624,508.25,626Z"/></svg>