<svg xmlns="http://www.w3.org/2000/svg" viewBox="0 0 6297.42 1050.35"><title>community-text-black</title><path d="M1307.12,479c0-204.35,154.49-343.91,348.89-343.91,151.52,0,236.25,79.74,283.1,162.48L1817.5,357.35c-27.92-53.82-87.73-96.68-161.49-96.68-115.64,0-203.36,92.7-203.36,218.3S1540.37,697.28,1656,697.28c73.76,0,133.57-41.86,161.49-96.7l121.61,58.81c-47.85,82.74-131.58,163.49-283.1,163.49C1461.61,822.88,1307.12,683.32,1307.12,479Z"/><path d="M1947.84,569.68c0-136.56,95.7-252.2,254.2-252.2,159.49,0,255.19,115.64,255.19,252.2,0,137.57-95.7,253.2-255.19,253.2C2043.54,822.88,1947.84,707.25,1947.84,569.68Zm377.8,0c0-74.76-44.85-139.55-123.6-139.55s-122.61,64.79-122.61,139.55c0,75.76,43.86,140.56,122.61,140.56S2325.64,645.44,2325.64,569.68Z"/><path d="M3095.39,506.88c0-44.85-19.93-76.75-71.76-76.75-44.86,0-81.75,29.9-99.68,55.82v325h-127.6v-304c0-44.85-19.95-76.75-71.77-76.75-43.87,0-80.75,29.9-99.69,56.81v324h-126.6V329.44h126.6v62.8c19.94-28.9,83.74-74.76,157.5-74.76,70.78,0,115.63,32.9,133.58,87.72,27.91-43.86,91.71-87.72,165.48-87.72,88.71,0,141.54,46.85,141.54,145.54v347.9h-127.6Z"/><path d="M3913.13,506.88c0-44.85-19.93-76.75-71.77-76.75-44.86,0-81.74,29.9-99.68,55.82v325H3614.09v-304c0-44.85-20-76.75-71.78-76.75-43.87,0-80.75,29.9-99.69,56.81v324H3316V329.44h126.6v62.8c19.94-28.9,83.74-74.76,157.5-74.76,70.78,0,115.64,32.9,133.58,87.72,27.91-43.86,91.71-87.72,165.48-87.72,88.72,0,141.54,46.85,141.54,145.54v347.9H3913.13Z"/><path d="M4448.19,750.11c-32.89,36.88-90.7,72.77-169.45,72.77-105.67,0-155.51-57.81-155.51-151.52V329.44h126.59V621.52c0,66.79,34.9,88.72,88.73,88.72,48.85,0,87.72-26.92,109.64-54.82v-326H4574.8V810.92H4448.19Z"/><path d="M4983.26,519.84c0-66.79-34.89-89.71-88.72-89.71-49.84,0-88.71,27.91-109.65,56.81v324h-126.6V329.44h126.6v62.8c30.9-36.87,89.71-74.76,168.46-74.76,105.67,0,156.51,59.81,156.51,153.51V810.92h-126.6Z"/><path d="M5190.93,182.9c0-41.86,34.89-75.75,75.76-75.75a75.76,75.76,0,0,1,0,151.52C5225.82,258.67,5190.93,224.78,5190.93,182.9Zm12.95,146.54h126.6V810.92h-126.6Z"/><path d="M5481,691.29V440.09h-79.76V329.44H5481V197.86h127.6V329.44h97.68V440.09h-97.68V657.41c0,29.9,15.94,52.83,43.86,52.83,18.94,0,36.87-7,43.85-14l26.92,95.7c-18.94,16.95-52.83,30.9-105.67,30.9C5528.85,822.88,5481,777,5481,691.29Z"/><path d="M5834.88,893.66c32.9,0,54.83-9,66.79-34.89l17.95-40.87L5724.23,329.44h135.58l125.6,334.94L6111,329.44h136.57L6021.3,889.67c-35.89,90.71-99.69,114.64-182.43,116.63-14.95,0-46.85-3-62.8-7L5795,885.68C5806,890.67,5822.92,893.66,5834.88,893.66Z"/><path d="M498,44.05c-263.33,0-476.81,213.47-476.81,476.81S234.65,997.67,498,997.67,974.79,784.19,974.79,520.86,761.32,44.05,498,44.05ZM780.59,698.16a83.17,83.17,0,0,1-58.52,24.93l-345.62,3a50.23,50.23,0,0,0-30.66,10.83l-78.43,62A36.75,36.75,0,0,1,244.44,807a37.2,37.2,0,0,1-37.07-36.8V704.7s1.27-7.28,2.62-10.67a27.65,27.65,0,0,1,14.88-15.23c3.36-1.43,7-2.19,10.63-3.91h.24c7.31,1.69,14.32,4.58,19.51,9.73a28.49,28.49,0,0,1,8.35,19.44v29.2l49.22-38.52c18.42-14.55,64.62-23.87,64.62-23.87l344.53-3a28.1,28.1,0,0,0,27.64-28.06L747,337a28.09,28.09,0,0,0-22.18-27.07,23.21,23.21,0,0,0-5.33-.5h-.61l-432.75,3.53a26.88,26.88,0,0,0-19.56,8.37,25.15,25.15,0,0,0-6.95,18.6v.92l2.25,261.72a28.32,28.32,0,0,1-1.93,10.7,28,28,0,0,1-5.82,9.12,27.33,27.33,0,0,1-8.8,6.15,26.87,26.87,0,0,1-10.44,2.22h-.09a26.1,26.1,0,0,1-8.06-1.14,27.86,27.86,0,0,1-19.32-26.4l-2.29-261.33A81.79,81.79,0,0,1,210,310.15,80.68,80.68,0,0,1,226.74,283,81.51,81.51,0,0,1,253.33,264,80.15,80.15,0,0,1,285,257.16l432.62-3.77a83.27,83.27,0,0,1,84.16,82.51l2.61,303.23A83.42,83.42,0,0,1,780.59,698.16Z"/></svg>