<svg xmlns="http://www.w3.org/2000/svg" viewBox="0 0 1000 1000"><title>community-notext-black</title><path d="M500,22C236,22,22,236,22,500S236,978,500,978,978,764,978,500,764,22,500,22ZM783.31,677.75a83.35,83.35,0,0,1-58.66,25l-346.49,3a50.34,50.34,0,0,0-30.73,10.87L268.8,778.78a36.87,36.87,0,0,1-23,8.08A37.3,37.3,0,0,1,208.66,750V684.3s1.27-7.3,2.63-10.7a27.73,27.73,0,0,1,14.92-15.26c3.37-1.44,7-2.19,10.65-3.92h.24c7.33,1.69,14.36,4.59,19.56,9.75A28.58,28.58,0,0,1,265,683.66v29.27l49.34-38.62c18.47-14.58,64.79-23.92,64.79-23.92l345.39-3a28.15,28.15,0,0,0,27.7-28.13L749.6,315.63a28.16,28.16,0,0,0-22.23-27.14A24,24,0,0,0,722,288h-.61l-433.83,3.54A27,27,0,0,0,268,299.92a25.26,25.26,0,0,0-7,18.65v.92l2.26,262.38a28.18,28.18,0,0,1-7.77,19.87,27.48,27.48,0,0,1-8.83,6.16,26.8,26.8,0,0,1-10.47,2.22h-.08A26,26,0,0,1,228,609a27.93,27.93,0,0,1-19.37-26.47l-2.3-262a82,82,0,0,1,5-31.77,80.67,80.67,0,0,1,16.76-27.25,81.75,81.75,0,0,1,26.65-19,80.23,80.23,0,0,1,31.79-6.89l433.71-3.79a83.49,83.49,0,0,1,84.37,82.72l2.61,304A83.54,83.54,0,0,1,783.31,677.75Z"/></svg>