<svg xmlns="http://www.w3.org/2000/svg" viewBox="0 0 1000 1000"><defs><style>.a{fill:#ff686b;}</style></defs><title>csfest-notext-avatar</title><path class="a" d="M412.14,581.34a16.94,16.94,0,0,1-9.6-3L309.86,514.8a18,18,0,0,1,0-29.78l92.68-63.56a17,17,0,1,1,19.22,28l-73.5,50.46,73.5,50.4a17,17,0,0,1-9.62,31Z"/><path class="a" d="M453.42,581.88a17,17,0,0,1-14.44-26l80.19-129.4a17,17,0,1,1,28.9,18l-80.19,129.4a17.17,17.17,0,0,1-6.21,5.85A17,17,0,0,1,453.42,581.88Z"/><path class="a" d="M576.23,581.34a17,17,0,0,1-9.64-31l73.52-50.4L566.59,449.5A17,17,0,0,1,559,438.55a16.93,16.93,0,0,1,0-6.8,17.12,17.12,0,0,1,2.66-6.26,17,17,0,0,1,24.18-4l92.68,63.56a18,18,0,0,1,0,29.78L585.83,578.4A16.93,16.93,0,0,1,576.23,581.34Z"/><path class="a" d="M672.48,720.8c-55.8,0-122.31-13.35-187.57-26.49C453.5,688,421,681.64,391.25,676.82c-4.54-.74-10.46-5.68-8.17-22.3,2-15.17,7.25-20.85,17.93-19.59,29.46,3.41,60.84,10.94,91.35,17.08,95.53,19.19,203.25,40.85,247.09,7.23V364.48c-59.34,15.84-136.59-.2-217.79-17.06-99.08-20.56-201.41-41.8-261.11.48v289c11.3-4.71,23.64-7.48,40.13-8.91,7.56-.66,9.75,6.47,10.55,18.18.65,9.39-2.3,21.79-16.05,24.08-21,3.45-32.46,5.7-52.16,18.82a19,19,0,0,1-29.32-15.81V323.84l6.64-5.54C295,256.18,414.52,281,530.06,305c90.2,18.72,175.4,36.4,228.46,11.54a19.51,19.51,0,0,1,27.78,17.64v347.6l-5.39,5.38C756.05,712,717.77,720.8,672.48,720.8Z"/></svg>