<svg xmlns="http://www.w3.org/2000/svg" viewBox="0 0 8847.1 1050.35"><defs><style>.a{fill:#252222;}.b{fill:#ff686b;}</style></defs><title>csfest-text-color</title><path class="a" d="M1224,453.76c0-204.07,154.3-343.43,353.39-343.43,146.34,0,231,79.64,277.73,162.26l-121.44,59.73c-27.87-53.76-87.61-96.56-156.29-96.56-120.46,0-208,92.57-208,218s87.59,218,208,218c68.68,0,128.42-41.81,156.29-96.56l121.44,58.74c-47.77,82.62-131.39,163.25-277.73,163.25C1378.25,797.19,1224,657.83,1224,453.76Z"/><path class="a" d="M1872.26,544.35c0-136.38,95.56-251.85,253.84-251.85,159.26,0,254.83,115.47,254.83,251.85,0,137.37-95.57,252.84-254.83,252.84C1967.82,797.19,1872.26,681.72,1872.26,544.35Zm377.27,0c0-74.66-44.79-139.36-123.43-139.36s-122.45,64.7-122.45,139.36c0,75.65,43.8,140.35,122.45,140.35S2249.53,620,2249.53,544.35Z"/><path class="a" d="M2771.41,785.25V723.53c-37.83,47.78-90.59,73.66-148.33,73.66-121.45,0-213-91.58-213-251.85,0-157.28,90.59-252.84,213-252.84,56.75,0,110.5,24.88,148.33,73.66V121.28h127.42v664Zm0-155.3V459.74c-20.91-31.86-66.7-54.75-109.5-54.75-71.67,0-121.45,56.73-121.45,140.35,0,82.63,49.78,139.36,121.45,139.36C2704.71,684.7,2750.5,661.81,2771.41,630Z"/><path class="a" d="M2946.17,544.35C2946.17,405,3048.7,292.5,3195,292.5c143.35,0,240.91,107.51,240.91,264.79v27.87H3078.57c8,60.72,56.74,111.49,138.37,111.49,40.81,0,97.55-17.92,128.41-47.78l55.75,81.63c-47.78,43.79-123.44,66.69-198.1,66.69C3056.66,797.19,2946.17,698.64,2946.17,544.35ZM3195,393c-78.63,0-112.47,58.73-118.45,106.51h236.91C3310.5,453.76,3278.65,393,3195,393Z"/><path class="a" d="M3483.28,785.25v-664h261.8c208.05,0,352.39,132.4,352.39,332.48s-144.34,331.49-352.39,331.49Zm469.85-331.49c0-117.46-71.67-208-208.05-208H3624.63v415.1h120.45C3876.49,660.81,3953.13,566.25,3953.13,453.76Z"/><path class="a" d="M4438.85,785.25V735.47c-32.84,38.82-89.58,61.72-152.3,61.72-76.64,0-167.24-51.76-167.24-159.27,0-112.49,90.6-155.29,167.24-155.29,63.71,0,120.46,20.9,152.3,58.73v-64.7c0-48.78-41.8-80.63-105.51-80.63-51.76,0-99.54,18.91-140.36,56.73l-47.77-84.61c58.72-51.76,134.38-75.65,210-75.65,109.5,0,210,43.8,210,182.16V785.25Zm0-115.48V610.05c-20.89-27.87-60.71-41.81-101.52-41.81-49.78,0-90.6,25.88-90.6,72.67,0,44.79,40.82,70.67,90.6,70.67C4378.14,711.58,4418,697.64,4438.85,669.77Z"/><path class="a" d="M4639.21,859.91c10.95,5,27.87,8,39.82,8,32.85,0,54.74-9,66.69-34.85l17.92-40.81-195.1-487.77h135.38l125.42,334.47,125.43-334.47h136.37l-226,559.45c-35.84,90.58-99.55,114.47-182.17,116.46-14.93,0-46.79-3-62.71-7Z"/><path class="a" d="M5137.93,286.25a69,69,0,0,1,5.66-27.82A71.13,71.13,0,0,1,5159,235.8a74.69,74.69,0,0,1,22.79-15.25,71.27,71.27,0,0,1,55.62,0,74.52,74.52,0,0,1,22.78,15.25,70.86,70.86,0,0,1,15.41,22.63,69,69,0,0,1,5.66,27.82,67.82,67.82,0,0,1-5.66,27.65,72,72,0,0,1-132,0A67.82,67.82,0,0,1,5137.93,286.25Zm11.31,0A58.5,58.5,0,0,0,5154,309.5a61.88,61.88,0,0,0,12.89,19.32,60,60,0,0,0,85.47,0,62.23,62.23,0,0,0,12.89-19.32,58.5,58.5,0,0,0,4.72-23.25,59.29,59.29,0,0,0-4.72-23.58,60.09,60.09,0,0,0-32.06-32.06,61.33,61.33,0,0,0-47.14,0A60.11,60.11,0,0,0,5154,262.67,59.29,59.29,0,0,0,5149.24,286.25Zm32.37-40.54h28.29a48.29,48.29,0,0,1,11,1.25,28.91,28.91,0,0,1,9.6,4.09,21.43,21.43,0,0,1,6.75,7.23,21.93,21.93,0,0,1,2.51,11q0,8.81-5,14.3a25.13,25.13,0,0,1-13.52,7.39l21.68,35.2H5225.3l-18.86-33.64h-10.37v33.64h-14.46Zm26.08,35.19a30.89,30.89,0,0,0,11.94-2.35q5.67-2.37,5.67-9.59,0-6.61-5.19-8.8a27.43,27.43,0,0,0-10.84-2.2h-13.2V280.9Z"/><path class="a" d="M5429.9,465.52c0-204.35,154.51-343.91,348.89-343.91,151.52,0,236.25,79.75,283.11,162.49l-121.62,59.8c-27.91-53.82-87.72-96.68-161.49-96.68-115.63,0-203.36,92.7-203.36,218.3s87.73,218.31,203.36,218.31c73.77,0,133.58-41.86,161.49-96.69L6061.9,646c-47.85,82.74-131.59,163.48-283.11,163.48C5584.41,809.43,5429.9,669.88,5429.9,465.52Z"/><path class="a" d="M6157.48,596.11a291.5,291.5,0,0,0,211.33,89.72c77.76,0,115.64-36.89,115.64-74.76,0-49.85-57.82-66.8-134.58-84.74C6241.22,501.41,6101.66,471.5,6101.66,323c0-110.65,95.7-200.37,252.2-200.37,105.67,0,193.39,31.89,259.18,92.71L6534.29,319c-53.83-49.85-125.61-72.77-190.4-72.77-63.8,0-97.69,27.91-97.69,67.78,0,44.86,55.83,58.82,132.58,76.75C6488.43,415.68,6628,448.58,6628,596.11c0,121.61-86.72,213.32-266.16,213.32-127.59,0-219.3-42.86-282.1-105.66Z"/><path class="a" d="M6947.3,132.58h470.51V254.19h-329V398.73h322V520.35h-322V797.47H6947.3Z"/><path class="a" d="M7689.71,304C7833.26,304,7931,411.69,7931,569.19v27.92H7573.08c8,60.81,56.83,111.65,138.56,111.65,44.85,0,97.69-18,128.6-47.85l55.82,81.73c-48.85,44.87-123.61,66.79-198.37,66.79-146.53,0-257.18-98.69-257.18-253.2C7440.51,416.68,7543.18,304,7689.71,304ZM7571.09,511.38h237.25c-3-45.86-34.9-106.66-118.63-106.66C7611,404.72,7577.07,463.53,7571.09,511.38Z"/><path class="a" d="M8014.57,646c34.89,32.89,106.66,65.79,166.47,65.79,54.82,0,80.75-18.93,80.75-48.85,0-33.88-41.86-45.85-96.7-56.81-82.74-16-189.39-35.89-189.39-150.53,0-80.73,70.77-151.52,197.37-151.52,81.74,0,146.53,27.91,193.38,65.8l-49.84,86.72c-28.91-30.9-83.73-55.82-142.55-55.82-45.85,0-75.76,16.95-75.76,44.86,0,29.9,37.88,40.86,91.71,51.83,82.74,15.95,193.39,37.88,193.39,157.5,0,88.72-74.76,154.51-208.34,154.51-83.74,0-164.48-27.91-215.32-74.76Z"/><path class="a" d="M8481,677.85V426.64h-79.75V316H8481V184.41h127.59V316h97.7V426.64h-97.7V644c0,29.91,16,52.83,43.86,52.83,18.94,0,36.89-7,43.87-14l26.91,95.7c-18.94,17-52.83,30.9-105.66,30.9C8528.82,809.43,8481,763.58,8481,677.85Z"/><path class="b" d="M397.27,615.12a28.06,28.06,0,0,1-16-5L227.23,504.5a29.93,29.93,0,0,1,0-49.51L381.31,349.32a28.26,28.26,0,1,1,31.95,46.55L291.07,479.76l122.19,83.79a28.26,28.26,0,0,1-16,51.57Z"/><path class="b" d="M465.9,616a28.31,28.31,0,0,1-27.49-21.82,28.25,28.25,0,0,1,3.48-21.34L575.22,357.74a28.3,28.3,0,0,1,48,29.92L489.94,602.79a28.32,28.32,0,0,1-24,13.23Z"/><path class="b" d="M670.08,615.12a28.26,28.26,0,0,1-16-51.57l122.22-83.79L654.06,395.94a28.25,28.25,0,0,1-12.64-29.51A28.21,28.21,0,0,1,654,348.18,28.24,28.24,0,0,1,686,349.39L840.12,455.06a29.93,29.93,0,0,1,0,49.51L686,610.23A28.05,28.05,0,0,1,670.08,615.12Z"/><path class="b" d="M830.08,847c-92.75,0-203.34-22.19-311.83-44C466,792.47,412,781.87,362.55,773.86c-7.56-1.23-17.4-9.44-13.59-37.07,3.32-25.21,12.06-34.66,29.82-32.57,49,5.67,101.14,18.19,151.86,28.39,158.81,31.91,337.9,67.92,410.78,12v-490c-98.65,26.33-227.06-.33-362.06-28.36-164.73-34.19-334.84-69.5-434.1.79V707.47C164,699.63,184.56,695,212,692.66c12.58-1.1,16.21,10.74,17.55,30.22,1.07,15.61-3.84,36.22-26.69,40-35,5.74-54,9.48-86.72,31.29a31.65,31.65,0,0,1-48.73-26.28V187l11-9.21c124.18-103.28,322.81-62.05,514.9-22.18,149.95,31.12,291.59,60.51,379.81,19.18a32.43,32.43,0,0,1,46.18,29.33V782l-8.95,9C969,832.33,905.38,847,830.08,847Z"/></svg>