<svg xmlns="http://www.w3.org/2000/svg" viewBox="0 0 5318.41 1050.35"><defs><style>.a{fill:#252222;}.b{fill:#ff686b;}</style></defs><title>codeday-text-color</title><path class="a" d="M1196.89,524.29c0-204.06,154.29-343.43,353.39-343.43,146.33,0,231,79.64,277.72,162.26l-121.43,59.73c-27.88-53.76-87.61-96.56-156.29-96.56-120.46,0-208.06,92.57-208.06,218s87.6,218,208.06,218c68.68,0,128.41-41.81,156.29-96.56L1828,704.47c-47.77,82.62-131.39,163.25-277.72,163.25C1351.18,867.72,1196.89,728.36,1196.89,524.29Z"/><path class="a" d="M1845.2,614.88C1845.2,478.5,1940.75,363,2099,363c159.27,0,254.84,115.47,254.84,251.85,0,137.37-95.57,252.84-254.84,252.84C1940.75,867.72,1845.2,752.25,1845.2,614.88Zm377.26,0c0-74.66-44.79-139.36-123.43-139.36s-122.44,64.7-122.44,139.36c0,75.65,43.8,140.36,122.44,140.36S2222.46,690.53,2222.46,614.88Z"/><path class="a" d="M2744.34,855.78V794.06c-37.83,47.78-90.58,73.66-148.32,73.66-121.45,0-213-91.58-213-251.85C2383,458.59,2473.58,363,2596,363c56.74,0,110.49,24.89,148.32,73.66V191.81h127.42v664Zm0-155.29V530.27c-20.9-31.86-66.7-54.75-109.5-54.75-71.67,0-121.45,56.73-121.45,140.35,0,82.63,49.78,139.37,121.45,139.37C2677.64,755.24,2723.44,732.34,2744.34,700.49Z"/><path class="a" d="M2919.1,614.88C2919.1,475.52,3021.64,363,3168,363c143.34,0,240.9,107.51,240.9,264.79v27.87H3051.5c8,60.73,56.75,111.49,138.38,111.49,40.8,0,97.55-17.92,128.41-47.78L3374,801c-47.79,43.79-123.45,66.69-198.11,66.69C3029.6,867.72,2919.1,769.17,2919.1,614.88ZM3168,463.57c-78.64,0-112.48,58.73-118.46,106.51h236.92C3283.44,524.29,3251.59,463.57,3168,463.57Z"/><path class="a" d="M3456.22,855.78v-664H3718c208.05,0,352.38,132.4,352.38,332.48S3926.07,855.78,3718,855.78Zm469.85-331.49c0-117.46-71.68-208-208.05-208H3597.57v415.1H3718C3849.42,731.34,3926.07,636.78,3926.07,524.29Z"/><path class="a" d="M4411.79,855.78V806c-32.85,38.82-89.59,61.72-152.3,61.72-76.64,0-167.24-51.76-167.24-159.27,0-112.49,90.6-155.29,167.24-155.29,63.71,0,120.45,20.9,152.3,58.73v-64.7c0-48.78-41.8-80.63-105.51-80.63-51.76,0-99.55,18.91-140.37,56.74l-47.77-84.62c58.73-51.76,134.38-75.65,210-75.65,109.5,0,210,43.8,210,182.16V855.78Zm0-115.48V680.58c-20.9-27.87-60.72-41.81-101.53-41.81-49.77,0-90.59,25.88-90.59,72.67,0,44.79,40.82,70.67,90.59,70.67C4351.07,782.11,4390.89,768.18,4411.79,740.3Z"/><path class="a" d="M4612.15,930.44c11,5,27.87,8,39.82,8,32.84,0,54.74-9,66.69-34.84l17.91-40.82L4541.47,375h135.38l125.43,334.46L4927.7,375h136.38l-226,559.44c-35.83,90.58-99.54,114.47-182.17,116.46-14.92,0-46.78-3-62.71-7Z"/><path class="a" d="M5110.86,356.78a69,69,0,0,1,5.67-27.82,71.1,71.1,0,0,1,15.38-22.63,74.41,74.41,0,0,1,22.8-15.24,71.27,71.27,0,0,1,55.62,0,74.43,74.43,0,0,1,22.78,15.24,71,71,0,0,1,15.4,22.63,69,69,0,0,1,5.66,27.82,67.82,67.82,0,0,1-5.66,27.65,71.69,71.69,0,0,1-66,43.05,70.69,70.69,0,0,1-27.8-5.5,71.08,71.08,0,0,1-38.18-37.55A67.82,67.82,0,0,1,5110.86,356.78Zm11.32,0a58.46,58.46,0,0,0,4.71,23.25,62.23,62.23,0,0,0,12.89,19.32,60,60,0,0,0,85.48,0A62.23,62.23,0,0,0,5238.15,380a58.63,58.63,0,0,0,4.71-23.25,59.45,59.45,0,0,0-4.71-23.58,60.09,60.09,0,0,0-32.06-32.06,61.33,61.33,0,0,0-47.14,0,60.09,60.09,0,0,0-32.06,32.06A59.28,59.28,0,0,0,5122.18,356.78Zm32.36-40.54h28.29a48.31,48.31,0,0,1,11,1.25,28.86,28.86,0,0,1,9.59,4.09,21.46,21.46,0,0,1,6.76,7.23,22,22,0,0,1,2.51,11q0,8.81-5,14.3a25.1,25.1,0,0,1-13.51,7.39l21.68,35.2h-17.6l-18.86-33.63H5169v33.63h-14.47Zm26.09,35.2a31,31,0,0,0,11.94-2.36q5.67-2.37,5.66-9.59,0-6.6-5.19-8.8a27.6,27.6,0,0,0-10.84-2.2H5169v22.95Z"/><path class="b" d="M248.2,564.76l-61.72,58a19.71,19.71,0,0,0-4.58,6.58,19.91,19.91,0,0,0,4.58,22.28c33.38,32.16,83.74,76.42,83.74,76.42s144.15,126.21,206.4,215.61l35.53,51.06a19.93,19.93,0,0,0,16.57,8.55,20,20,0,0,0,16.38-8.9l34.35-51.9c60-90.63,207.18-221.09,207.18-221.09s44.49-39.48,75.33-68.78a19.92,19.92,0,0,0-.4-29.18l-62.73-57a19.87,19.87,0,0,0-27.24.49L540.4,791.51a19.87,19.87,0,0,1-27.59,0L275.62,564.85a20,20,0,0,0-27.42-.09Z"/><path class="b" d="M285.1,55.5A280.46,280.46,0,0,0,36.33,323.84c-3.42,99.05,25.22,174,70.41,238.07a9.46,9.46,0,0,0,3,2.78,9.54,9.54,0,0,0,7.94.82,9.44,9.44,0,0,0,3.5-2.11l77.69-73.17a9.44,9.44,0,0,0,1.58-12,249.63,249.63,0,0,1-40.05-138.49A163,163,0,0,1,323.22,177,177.52,177.52,0,0,1,418.9,208.6c11.76,8.77,33.47,26.71,48.26,39.13a9.56,9.56,0,0,0,15.7-7.37V105.42A9.6,9.6,0,0,0,480.4,99C469.17,86.6,417.72,40.45,285.1,55.5Z"/><path class="b" d="M750.76,55.5A280.49,280.49,0,0,1,999.54,323.84c3.46,99.05-25.18,174-70.19,238.07a9.56,9.56,0,0,1-10.93,3.6,9.48,9.48,0,0,1-3.51-2.11L837,490.23a9.54,9.54,0,0,1-1.58-12,249.36,249.36,0,0,0,40.05-138.49A163,163,0,0,0,712.68,177,177.51,177.51,0,0,0,617,208.6c-11.76,8.77-33.47,26.71-48.26,39.13a9.57,9.57,0,0,1-14.22-2.22,9.5,9.5,0,0,1-1.48-5.15V105.42a9.44,9.44,0,0,1,2.5-6.45C566.74,86.6,618.32,40.45,750.76,55.5Z"/><path class="b" d="M871.29,921.18a57,57,0,1,1-56.68-55.36,55.63,55.63,0,0,1,56.68,55.36Zm-99.54,0A42.94,42.94,0,0,0,831.44,962a42.38,42.38,0,0,0,25.68-40.46c0-24.65-17.9-44.57-42.51-44.57a43,43,0,0,0-42.86,44.22Zm35.72,28.87H794.31V894.69A115.86,115.86,0,0,1,816,893a35.51,35.51,0,0,1,19.59,4.08,15.52,15.52,0,0,1,4.19,5.45,15,15,0,0,1,1.35,6.7,14,14,0,0,1-3.65,8.34,14.49,14.49,0,0,1-8.06,4.47v1.09a16.75,16.75,0,0,1,7,5.27,16,16,0,0,1,3.25,8,40.61,40.61,0,0,0,4.11,13.65h-14a44.67,44.67,0,0,1-4.45-13.3c-1-6-4.46-8.64-11.69-8.64h-6.15Zm0-30.71h6.1c7.06,0,12.81-2.37,12.81-8.12,0-5-3.73-8.42-11.8-8.42a33.92,33.92,0,0,0-7.11.66Z"/></svg>