<svg xmlns="http://www.w3.org/2000/svg" viewBox="0 0 1000 1000"><defs><style>.a{fill:#ff686b;}</style></defs><title>codeday-notext-avatar</title><path class="a" d="M337.75,548.17l-37.12,34.91a12,12,0,0,0,0,17.36c20.08,19.34,50.37,46,50.37,46s86.71,75.92,124.15,129.69l21.37,30.72a12,12,0,0,0,19.82-.21L537,775.38c36.12-54.51,124.62-133,124.62-133s26.76-23.74,45.31-41.37a12,12,0,0,0,2.77-4,11.77,11.77,0,0,0,.93-4.8,11.92,11.92,0,0,0-1.06-4.77,12.08,12.08,0,0,0-2.88-3.95L669,549.17a11.95,11.95,0,0,0-16.39.29L513.52,684.56a12,12,0,0,1-16.6,0L354.25,548.22a12,12,0,0,0-16.5-.05Z"/><path class="a" d="M360,241.84A168.74,168.74,0,0,0,210.31,403.25c-2.06,59.58,15.17,104.68,42.35,143.2a5.86,5.86,0,0,0,1.8,1.67,5.74,5.74,0,0,0,2.34.78,6,6,0,0,0,2.44-.28,5.8,5.8,0,0,0,2.1-1.27l46.73-44a5.68,5.68,0,0,0,.95-7.21,150.26,150.26,0,0,1-24.09-83.3,98.06,98.06,0,0,1,97.95-97.89,106.82,106.82,0,0,1,57.55,19c7.07,5.28,20.13,16.07,29,23.54a5.75,5.75,0,0,0,8.55-1.33,5.7,5.7,0,0,0,.89-3.1V271.87a5.75,5.75,0,0,0-1.48-3.88C470.67,260.55,439.72,232.79,360,241.84Z"/><path class="a" d="M640.05,241.84A168.72,168.72,0,0,1,789.68,403.25c2.09,59.58-15.14,104.68-42.21,143.2a5.86,5.86,0,0,1-1.8,1.67,5.74,5.74,0,0,1-2.34.78,5.94,5.94,0,0,1-2.44-.28,5.84,5.84,0,0,1-2.11-1.27l-46.86-44a5.75,5.75,0,0,1-.95-7.21,149.94,149.94,0,0,0,24.09-83.3,98,98,0,0,0-97.92-97.89,106.85,106.85,0,0,0-57.55,19c-7.07,5.28-20.13,16.07-29,23.54a5.88,5.88,0,0,1-3,1.3,5.81,5.81,0,0,1-3.18-.5,5.87,5.87,0,0,1-2.42-2.13,5.79,5.79,0,0,1-.89-3.1V271.87a5.7,5.7,0,0,1,1.5-3.88C529.35,260.55,560.38,232.79,640.05,241.84Z"/><path class="a" d="M712.54,762.56a34.3,34.3,0,1,1-34.09-33.3,33.44,33.44,0,0,1,34.09,33.3Zm-59.87,0a25.81,25.81,0,0,0,35.9,24.54A25.51,25.51,0,0,0,704,762.77c0-14.83-10.76-26.81-25.57-26.81a25.87,25.87,0,0,0-25.78,26.6Zm21.49,17.36h-7.92v-33.3a70.37,70.37,0,0,1,13-1A21.48,21.48,0,0,1,691.06,748a9.38,9.38,0,0,1,2.52,3.28,9.07,9.07,0,0,1,.82,4,8.44,8.44,0,0,1-2.2,5,8.72,8.72,0,0,1-4.85,2.68v.65a10.14,10.14,0,0,1,4.24,3.18,9.65,9.65,0,0,1,2,4.82,24.51,24.51,0,0,0,2.46,8.21h-8.44a26.89,26.89,0,0,1-2.69-8c-.61-3.61-2.68-5.19-7-5.19h-3.7Zm0-18.47h3.67c4.24,0,7.7-1.43,7.7-4.88,0-3-2.24-5.07-7.1-5.07a19.74,19.74,0,0,0-4.27.4Z"/></svg>