<svg xmlns="http://www.w3.org/2000/svg" viewBox="0 0 7387.82 1050.35"><defs><style>.a{fill:#252222;}.b{fill:#ff686b;}</style></defs><title>labs-text-color</title><path class="a" d="M5434.25,138.13H5575.8V678.42h281.11V803H5434.25Z"/><path class="a" d="M6213.68,753.18c-32.9,38.88-89.72,61.8-152.52,61.8-76.75,0-167.47-51.83-167.47-159.49,0-112.65,90.72-153.51,167.47-153.51,63.8,0,120.62,19.94,152.52,58.81V494c0-48.85-41.87-80.75-105.67-80.75-51.83,0-99.68,18.94-140.55,56.83l-47.85-84.74c58.81-51.84,134.58-75.75,210.33-75.75,109.66,0,210.34,43.85,210.34,182.41V803h-126.6Zm0-125.6c-20.93-27.91-60.81-41.87-101.68-41.87-49.84,0-90.71,26.92-90.71,72.77,0,44.86,40.87,70.78,90.71,70.78,40.87,0,80.75-14,101.68-41.87Z"/><path class="a" d="M6413.24,138.13h126.6V383.35c37.89-48.85,91.72-73.76,148.54-73.76,122.6,0,213.32,95.69,213.32,253.19,0,160.5-91.71,252.2-213.32,252.2-57.82,0-110.65-25.91-148.54-72.76V803h-126.6ZM6648.5,702.34c73.77,0,122.61-55.82,122.61-139.56s-48.84-140.55-122.61-140.55c-40.87,0-87.72,23.92-108.66,55.82V648.52C6560.78,679.42,6607.63,702.34,6648.5,702.34Z"/><path class="a" d="M6989.31,651.5c34.89,32.89,106.66,65.79,166.47,65.79,54.83,0,80.74-18.93,80.74-48.85,0-33.88-41.86-45.85-96.69-56.81-82.74-16-189.4-35.89-189.4-150.53,0-80.73,70.78-151.51,197.38-151.51,81.74,0,146.52,27.9,193.38,65.79l-49.84,86.72c-28.91-30.9-83.74-55.82-142.55-55.82-45.85,0-75.76,17-75.76,44.86,0,29.9,37.88,40.86,91.71,51.83,82.73,15.95,193.38,37.88,193.38,157.5,0,88.72-74.76,154.51-208.33,154.51-83.74,0-164.48-27.91-215.32-74.76Z"/><path class="a" d="M1196.41,469.84c0-204.06,154.29-343.43,353.39-343.43,146.33,0,231,79.64,277.72,162.26L1706.09,348.4c-27.88-53.76-87.61-96.56-156.29-96.56-120.46,0-208.06,92.57-208.06,218s87.6,218,208.06,218c68.68,0,128.41-41.81,156.29-96.56L1827.52,650c-47.77,82.62-131.39,163.25-277.72,163.25C1350.7,813.27,1196.41,673.91,1196.41,469.84Z"/><path class="a" d="M1844.72,560.43c0-136.38,95.55-251.85,253.83-251.85,159.27,0,254.84,115.47,254.84,251.85,0,137.37-95.57,252.84-254.84,252.84C1940.27,813.27,1844.72,697.8,1844.72,560.43Zm377.26,0c0-74.66-44.79-139.36-123.43-139.36s-122.44,64.7-122.44,139.36c0,75.65,43.8,140.36,122.44,140.36S2222,636.08,2222,560.43Z"/><path class="a" d="M2743.86,801.33V739.61c-37.83,47.78-90.58,73.66-148.32,73.66-121.45,0-213-91.58-213-251.85,0-157.28,90.58-252.84,213-252.84,56.74,0,110.49,24.89,148.32,73.66V137.36h127.42v664Zm0-155.29V475.82c-20.9-31.86-66.7-54.75-109.5-54.75-71.67,0-121.45,56.73-121.45,140.35,0,82.63,49.78,139.37,121.45,139.37C2677.16,700.79,2723,677.89,2743.86,646Z"/><path class="a" d="M2918.62,560.43c0-139.36,102.54-251.85,248.87-251.85,143.34,0,240.9,107.51,240.9,264.79v27.87H3051c8,60.73,56.75,111.49,138.37,111.49,40.81,0,97.56-17.92,128.42-47.78l55.75,81.63c-47.79,43.79-123.45,66.69-198.11,66.69C3029.12,813.27,2918.62,714.72,2918.62,560.43Zm248.87-151.31c-78.64,0-112.48,58.73-118.46,106.51H3286C3283,469.84,3251.11,409.12,3167.49,409.12Z"/><path class="a" d="M3455.74,801.33v-664h261.8c208,0,352.38,132.4,352.38,332.48s-144.34,331.49-352.38,331.49Zm469.84-331.49c0-117.46-71.67-208-208-208H3597.09v415.1h120.45C3848.94,676.89,3925.58,582.33,3925.58,469.84Z"/><path class="a" d="M4411.31,801.33V751.55c-32.85,38.82-89.59,61.72-152.3,61.72-76.64,0-167.24-51.76-167.24-159.27,0-112.49,90.6-155.29,167.24-155.29,63.71,0,120.45,20.9,152.3,58.73v-64.7c0-48.78-41.8-80.63-105.51-80.63-51.76,0-99.55,18.91-140.37,56.74l-47.77-84.62c58.73-51.76,134.38-75.65,210-75.65,109.5,0,210,43.8,210,182.16V801.33Zm0-115.48V626.13c-20.9-27.87-60.72-41.81-101.53-41.81-49.77,0-90.59,25.88-90.59,72.67,0,44.79,40.82,70.67,90.59,70.67C4350.59,727.66,4390.41,713.73,4411.31,685.85Z"/><path class="a" d="M4611.67,876c10.95,5,27.87,8,39.82,8,32.84,0,54.74-9,66.69-34.84l17.91-40.82L4541,320.53h135.38L4801.8,655l125.42-334.46H5063.6L4837.63,880c-35.83,90.58-99.54,114.47-182.17,116.46-14.92,0-46.78-3-62.71-7Z"/><path class="a" d="M5110.38,302.33a69,69,0,0,1,5.67-27.82,71.1,71.1,0,0,1,15.38-22.63,74.41,74.41,0,0,1,22.8-15.24,71.27,71.27,0,0,1,55.62,0,74.43,74.43,0,0,1,22.78,15.24,71,71,0,0,1,15.4,22.63,69,69,0,0,1,5.66,27.82A67.82,67.82,0,0,1,5248,330a71.69,71.69,0,0,1-66,43,70.69,70.69,0,0,1-27.8-5.5A71.08,71.08,0,0,1,5116.05,330,67.82,67.82,0,0,1,5110.38,302.33Zm11.32,0a58.46,58.46,0,0,0,4.71,23.25,62.23,62.23,0,0,0,12.89,19.32,60,60,0,0,0,85.48,0,62.23,62.23,0,0,0,12.89-19.32,58.63,58.63,0,0,0,4.71-23.25,59.45,59.45,0,0,0-4.71-23.58,60.09,60.09,0,0,0-32.06-32.06,61.33,61.33,0,0,0-47.14,0,60.09,60.09,0,0,0-32.06,32.06A59.28,59.28,0,0,0,5121.7,302.33Zm32.36-40.54h28.29a48.31,48.31,0,0,1,11,1.25,28.86,28.86,0,0,1,9.59,4.09,21.46,21.46,0,0,1,6.76,7.23,22,22,0,0,1,2.51,11q0,8.81-5,14.3a25.1,25.1,0,0,1-13.51,7.39l21.67,35.2h-17.59l-18.86-33.63h-10.36v33.63h-14.47ZM5180.15,297a31,31,0,0,0,11.94-2.35q5.67-2.37,5.66-9.59,0-6.6-5.19-8.8a27.6,27.6,0,0,0-10.84-2.2h-13.19V297Z"/><path class="b" d="M392.57,646.26a22.55,22.55,0,0,1-12.86-4L242.92,548.45a24.26,24.26,0,0,1,0-40L379.8,414.62a22.67,22.67,0,0,1,35,13.94A22.64,22.64,0,0,1,405.52,452L293.91,528.6l111.48,76.45a22.64,22.64,0,0,1-12.86,41.34Z"/><path class="b" d="M453.55,647a22.63,22.63,0,0,1-19.25-34.56L552.73,421.4a22.69,22.69,0,0,1,38.59,23.88L472.89,636.36A22.51,22.51,0,0,1,453.55,647Z"/><path class="b" d="M634.93,646.26a22.63,22.63,0,0,1-12.86-41.33l111.48-76.46L622.07,452a22.69,22.69,0,0,1-9.32-23.41,22.92,22.92,0,0,1,3.51-8.13,22.67,22.67,0,0,1,31.53-5.81l136.88,93.87a24.2,24.2,0,0,1,0,39.92L647.75,642.27A22.4,22.4,0,0,1,634.93,646.26Z"/><path class="b" d="M513,1002.08a111.46,111.46,0,0,1-79.28-32.85L349.18,884.8c-19.73-19.72-10.21-45.19,9.52-64.92s42.24-26.24,62-6.52l84.43,84.43a10.76,10.76,0,0,0,7.8,3.22,11,11,0,0,0,4.23-.82,11.1,11.1,0,0,0,3.58-2.4l364.82-364.9a11,11,0,0,0,0-15.61L520.7,152.63a11,11,0,0,0-15.57,0L140.4,517.41a11.07,11.07,0,0,0,0,15.61L314.28,706.89c19.76,19.73,12.6,41.64-7.12,61.36s-44.6,30-64.32,10.12L68.92,604.45a112.14,112.14,0,0,1,0-158.65L433.7,81.19a112,112,0,0,1,158.65,0L957.13,446a112.17,112.17,0,0,1,0,158.65L592.35,969.4A111.41,111.41,0,0,1,513,1002.08Z"/></svg>