<svg xmlns="http://www.w3.org/2000/svg" viewBox="0 0 1000 1000"><defs><style>.a{fill:#fff;}</style></defs><title>labs-notext-white</title><path class="a" d="M377.44,625.07a22.65,22.65,0,0,1-12.89-4L227.42,527a24.33,24.33,0,0,1,0-40.06l137.21-94.1a22.78,22.78,0,0,1,17-3.64,22.73,22.73,0,0,1,8.77,41.08L278.53,507.11,390.3,583.75a22.69,22.69,0,0,1-12.9,41.44Z"/><path class="a" d="M438.57,625.84a22.69,22.69,0,0,1-19.3-34.65L538,399.64a22.75,22.75,0,1,1,38.69,23.94L458,615.14a22.57,22.57,0,0,1-19.39,10.7Z"/><path class="a" d="M620.41,625.07a22.69,22.69,0,0,1-12.9-41.44L719.28,507,607.51,430.29a22.76,22.76,0,0,1-9.46-14.6,22.66,22.66,0,0,1,3.64-17,22.73,22.73,0,0,1,31.61-5.82L770.52,487a24.25,24.25,0,0,1,0,40l-137.26,94.1A22.43,22.43,0,0,1,620.41,625.07Z"/><path class="a" d="M498.15,981.77a111.78,111.78,0,0,1-79.48-32.92L333.94,864.2c-19.77-19.77-10.23-45.3,9.54-65.08s42.35-26.31,62.12-6.53l84.64,84.64a11,11,0,0,0,3.59,2.41,10.76,10.76,0,0,0,4.23.81,11,11,0,0,0,4.24-.82,11.15,11.15,0,0,0,3.59-2.4L871.62,511.41a11.17,11.17,0,0,0,2.41-3.59,11,11,0,0,0-2.41-12.06L505.89,130.2a11,11,0,0,0-15.61,0L124.63,495.89a11.09,11.09,0,0,0,0,15.65L299,685.85c19.81,19.77,12.64,41.74-7.14,61.51s-44.7,30.1-64.48,10.15L53,583.15a112.47,112.47,0,0,1,0-159L418.67,58.58a112.32,112.32,0,0,1,159.05,0L943.41,424.27a112.43,112.43,0,0,1,0,159.05L577.72,949a111.73,111.73,0,0,1-79.57,32.75Z"/></svg>