<svg xmlns="http://www.w3.org/2000/svg" viewBox="0 0 1000 1000"><defs><style>.a{fill:#ff686b;}</style></defs><title>labs-notext-avatar</title><path class="a" d="M425.74,576.51a13.51,13.51,0,0,1-7.73-2.4l-82.28-56.43a14.6,14.6,0,0,1,0-24l82.33-56.46A13.57,13.57,0,0,1,428.27,435a13.42,13.42,0,0,1,4.94,2,13.65,13.65,0,0,1,6,13.91,13.62,13.62,0,0,1-5.68,8.76l-67.14,46.1,67.06,46a13.62,13.62,0,0,1-7.73,24.87Z"/><path class="a" d="M462.42,577a13.61,13.61,0,0,1-11.58-20.78l71.24-114.94a13.65,13.65,0,0,1,23.21,14.37L474.05,570.55A13.49,13.49,0,0,1,462.42,577Z"/><path class="a" d="M571.52,576.51a13.62,13.62,0,0,1-7.74-24.86l67.06-46-67.06-46a13.73,13.73,0,0,1-3.71-3.81,13.73,13.73,0,0,1-1.89-10.27,13.74,13.74,0,0,1,2.11-4.89,13.6,13.6,0,0,1,3.82-3.7,13.42,13.42,0,0,1,4.94-2,13.59,13.59,0,0,1,10.21,2.18l82.33,56.46a14.55,14.55,0,0,1,4.65,18.79,14.42,14.42,0,0,1-4.65,5.22l-82.36,56.46A13.43,13.43,0,0,1,571.52,576.51Z"/><path class="a" d="M498.17,790.54a67.06,67.06,0,0,1-47.69-19.76L399.64,720c-11.86-11.86-6.14-27.18,5.73-39s25.4-15.78,37.27-3.92l50.78,50.79a6.61,6.61,0,0,0,2.15,1.44,6.36,6.36,0,0,0,2.55.49,6.53,6.53,0,0,0,2.54-.49,6.94,6.94,0,0,0,2.15-1.44L722.25,508.32a6.62,6.62,0,0,0,1.44-7.24,6.4,6.4,0,0,0-1.44-2.15L502.81,279.59a6.61,6.61,0,0,0-9.36,0L274.06,499a6.65,6.65,0,0,0,0,9.39L378.65,613c11.89,11.86,7.58,25-4.29,36.91s-26.82,18.05-38.68,6.09L231.06,551.36a67.47,67.47,0,0,1,0-95.43L450.48,236.62a67.38,67.38,0,0,1,95.43,0L765.33,456a67.52,67.52,0,0,1,0,95.44L545.91,770.88a67,67,0,0,1-47.74,19.66Z"/></svg>